<?xml version="1.0" encoding="utf-8"?>
<!-- Generator: Adobe Illustrator 25.0.0, SVG Export Plug-In . SVG Version: 6.00 Build 0)  -->
<svg version="1.1" id="Layer_1"
	xmlns="http://www.w3.org/2000/svg"
	xmlns:xlink="http://www.w3.org/1999/xlink" x="0px" y="0px" viewBox="0 0 50 50" style="enable-background:new 0 0 50 50;" xml:space="preserve">
	<style type="text/css">
	.st0{fill:#FEAD34;}
	.st1{fill:#DA3C3D;}
	.st2{fill:#1E0413;}
	</style>
	<circle class="st0" cx="25" cy="25" r="25"/>
	<polygon class="st1" points="28.5,40.95 28.51,40.96 28.5,40.96 "/>
	<polygon class="st2" points="40.16,7.55 34.52,39.56 34.27,40.96 32.74,40.96 32.74,40.95 34.94,28.47 38.63,7.55 "/>
	<polygon class="st2" points="15.63,7.55 9.99,39.56 9.74,40.96 8.21,40.96 8.21,40.95 10.41,28.47 14.1,7.55 "/>
	<polygon class="st2" points="19.97,7.55 14.32,39.56 14.08,40.96 12.54,40.96 12.55,40.95 14.75,28.47 18.44,7.55 "/>
	<polygon class="st2" points="35.83,7.55 30.18,39.56 29.94,40.96 28.4,40.96 28.41,40.95 30.61,28.47 34.3,7.55 "/>
	<polygon class="st2" points="37.99,7.55 32.35,39.56 32.1,40.96 30.57,40.96 30.57,40.95 32.77,28.47 36.46,7.55 "/>
	<polygon class="st2" points="17.8,7.54 12.16,39.55 11.91,40.95 10.38,40.95 10.38,40.93 12.58,28.45 16.27,7.54 "/>
	<polygon class="st2" points="21.85,11.3 19.65,23.78 18.51,21.56 20.71,9.09 "/>
	<polygon class="st2" points="25.07,17.56 22.87,30.04 21.73,27.83 23.93,15.35 "/>
	<polygon class="st2" points="23.46,14.43 21.26,26.91 20.12,24.7 22.32,12.22 "/>
	<polygon class="st2" points="26.65,20.6 24.45,33.09 23.31,30.88 23.73,28.46 25.51,18.39 "/>
	<polygon class="st2" points="29.87,26.87 27.67,39.34 26.53,37.13 28.06,28.46 28.73,24.65 "/>
	<polygon class="st2" points="28.26,23.72 28.26,23.73 26.06,36.21 24.92,34 25.9,28.44 27.12,21.52 "/>
</svg>
